<svg class="truck" width="165" height="165" viewBox="0 0 165 165" fill="none" xmlns="http://www.w3.org/2000/svg">
    <path id="vector-1" d="M24.75 33C22.562 33 20.4635 33.8692 18.9164 35.4164C17.3692 36.9635 16.5 39.062 16.5 41.25V123.75C16.5 125.938 17.3692 128.036 18.9164 129.584C20.4635 131.131 22.562 132 24.75 132H33.4125C34.3593 127.338 36.8888 123.146 40.5724 120.135C44.2561 117.124 48.8674 115.479 53.625 115.479C58.3826 115.479 62.9939 117.124 66.6776 120.135C70.3612 123.146 72.8907 127.338 73.8375 132H82.5C84.688 132 86.7865 131.131 88.3336 129.584C89.8808 128.036 90.75 125.938 90.75 123.75V41.25C90.75 39.062 89.8808 36.9635 88.3336 35.4164C86.7865 33.8692 84.688 33 82.5 33H24.75ZM115.5 57.75C113.312 57.75 111.214 58.6192 109.666 60.1664C108.119 61.7135 107.25 63.812 107.25 66V115.912C109.904 115.37 112.64 115.356 115.299 115.871C117.959 116.386 120.491 117.42 122.752 118.914C125.012 120.408 126.955 122.333 128.471 124.578C129.987 126.823 131.046 129.345 131.588 132H140.25C142.438 132 144.536 131.131 146.084 129.584C147.631 128.036 148.5 125.938 148.5 123.75V82.5C148.5 80.3121 147.63 78.2141 146.083 76.6673L129.583 60.1673C128.036 58.62 125.938 57.7505 123.75 57.75H115.5Z" fill="#000000"/>
    <path id="vector-2" d="M66 136.125C66 139.407 64.6962 142.555 62.3754 144.875C60.0547 147.196 56.9071 148.5 53.625 148.5C50.3429 148.5 47.1953 147.196 44.8746 144.875C42.5538 142.555 41.25 139.407 41.25 136.125C41.25 132.843 42.5538 129.695 44.8746 127.375C47.1953 125.054 50.3429 123.75 53.625 123.75C56.9071 123.75 60.0547 125.054 62.3754 127.375C64.6962 129.695 66 132.843 66 136.125ZM123.75 136.125C123.75 139.407 122.446 142.555 120.125 144.875C117.805 147.196 114.657 148.5 111.375 148.5C108.093 148.5 104.945 147.196 102.625 144.875C100.304 142.555 99 139.407 99 136.125C99 132.843 100.304 129.695 102.625 127.375C104.945 125.054 108.093 123.75 111.375 123.75C114.657 123.75 117.805 125.054 120.125 127.375C122.446 129.695 123.75 132.843 123.75 136.125Z" fill="#000000"/>
</svg>